# xmcd CD database file
#
# Track frame offsets:
#	150
#	10415
#	22912
#	37912
#	49480
#	65057
#	80237
#	90712
#	101832
#	115795
#	127105
#	137202
#	147547
#	157725
#	167425
#	176882
#	198070
#	208075
#	217390
#	226690
#
# Disc length: 3269 seconds
#
# Revision: 1
# Processed by: cddbd v1.5.1PL2 Copyright (c) Steve Scherf et al.
# Submitted via: CDex 1.51
#
DISCID=250cc314
DTITLE=Chet Atkins - The Best Of Chet Atkins
DYEAR=1900
DGENRE=Country
TTITLE0=Main Street Breakdown
TTITLE1=South
TTITLE2=Indiana (Back Home Again In Indiana)
TTITLE3=Alabama Jubilee
TTITLE4=Caravan
TTITLE5=The Birth Of The Blues
TTITLE6=12th Street Rag
TTITLE7=Galloping On The Guitar
TTITLE8=The 3rd Man Theme
TTITLE9=Rainbow
TTITLE10=Country Gentleman
TTITLE11=Mister Sandman
TTITLE12=Silver Bell
TTITLE13=New Spanish Two-Step
TTITLE14=Heartaches
TTITLE15=Sweet Georgia Brown
TTITLE16=Chaplin In New Shoes
TTITLE17=Yakety Axe
TTITLE18=Freight Train
TTITLE19=Orange Blossom Special
EXTD=
EXTT0=
EXTT1=
EXTT2=
EXTT3=
EXTT4=
EXTT5=
EXTT6=
EXTT7=
EXTT8=
EXTT9=
EXTT10=
EXTT11=
EXTT12=
EXTT13=
EXTT14=
EXTT15=
EXTT16=
EXTT17=
EXTT18=
EXTT19=
PLAYORDER=
